<svg width="48" height="48" viewBox="0 0 48 48" fill="none" xmlns="http://www.w3.org/2000/svg">
<g clip-path="url(#clip0_4938_9400)">
<g clip-path="url(#clip1_4938_9400)">
<path d="M25.4896 47.844C24.0231 47.4382 22.5472 46.594 21.2376 45.412C20.6737 44.9031 20.6248 44.893 19.9129 45.1407C13.2702 47.4513 7.27878 43.809 6.85038 37.1999C6.79801 36.392 6.79801 36.392 6.1869 36.0876C-0.213652 32.8995 -1.92924 26.3303 2.36738 21.4623C3.03632 20.7044 3.02017 20.7772 2.7538 19.7194C1.45944 14.579 2.61773 10.4482 5.9531 8.30981C7.23551 7.48761 8.4623 7.15987 10.8415 7.00388C11.5042 6.96043 11.5042 6.96043 11.7358 6.5027C12.9984 4.0081 15.5529 1.44106 17.4537 0.756681C17.6442 0.688093 17.9359 0.570027 18.1019 0.494313C20.5417 -0.618415 23.9553 0.189842 26.5403 2.49231C27.2818 3.15283 27.2818 3.15283 28.2381 2.8806C35.1985 0.899057 40.3336 3.92873 41.0447 10.4364C41.1838 11.7094 41.1239 11.6173 42.1831 12.1864C48.2815 15.4629 49.8523 22.0435 45.6163 26.5688C44.8445 27.3933 44.888 27.2492 45.1434 28.1355C47.2465 35.437 44.0475 40.58 37.0735 41.1098C36.4258 41.159 36.4258 41.159 36.0076 41.9287C34.8648 44.0322 32.9925 46.0229 31.388 46.8404C31.1834 46.9446 30.9688 47.0771 30.911 47.1347C30.8532 47.1924 30.7681 47.2395 30.7219 47.2395C30.6757 47.2395 30.4999 47.3055 30.3312 47.3862C29.1554 47.9483 26.7041 48.1801 25.4896 47.844ZM29.2549 45.9145C31.1723 45.4879 33.6659 43.4893 34.8922 41.3961C35.2673 40.756 35.277 40.803 34.7471 40.699C33.7432 40.502 32.2256 40.9851 30.5895 42.0225C28.946 43.0647 28.831 43.0572 27.4588 41.8207C26.5345 40.9878 26.3001 40.8709 25.4214 40.805C24.8988 40.7659 24.6675 40.711 24.4179 40.5671C23.9029 40.2701 23.3223 40.1003 21.988 39.8564C20.193 39.5282 19.6822 39.2368 19.0993 38.2081C17.8014 35.9178 17.7957 31.3617 19.0874 28.6832C19.2302 28.3871 19.347 28.1198 19.347 28.0893C19.347 28.0588 19.4149 27.9477 19.4979 27.8425C19.5809 27.7372 19.6496 27.5964 19.6505 27.5295C19.6514 27.4627 19.721 27.3233 19.8052 27.2198C19.8893 27.1163 20.0464 26.8962 20.1543 26.7306C20.2622 26.565 20.4139 26.3618 20.4915 26.2791C20.9918 25.7454 21.3891 25.2394 21.3648 25.1668C21.1568 24.5444 16.9702 25.2634 15.8504 26.1138C15.7192 26.2135 15.5307 26.3206 15.4316 26.3518C15.3325 26.3831 14.8985 26.7012 14.4672 27.0588C14.0358 27.4165 13.5834 27.7768 13.4618 27.8596C13.3402 27.9423 13.2394 28.0392 13.2378 28.0748C13.2362 28.1104 13.0699 28.3195 12.8683 28.5395C12.479 28.9643 11.8976 30.0417 11.8291 30.4653C11.7552 30.9218 12.507 32.3802 12.9733 32.6849C13.0694 32.7477 13.1832 32.8997 13.2262 33.0225C13.316 33.2796 13.6841 33.4666 14.1002 33.4666C14.3667 33.4666 14.3667 33.4666 14.3667 34.3041C14.3667 35.1417 14.3667 35.1417 14.8413 35.6434C15.6058 36.4517 15.7086 36.8669 15.4623 38.1506C15.2789 39.1065 15.3093 39.1325 17.0336 39.4935C17.4552 39.5818 17.8753 39.7013 17.9672 39.759C18.0591 39.8166 18.1804 39.8638 18.2368 39.8638C18.4051 39.8638 19.7239 40.5294 20.2599 40.8848C21.1134 41.4507 21.6272 42.1173 21.8712 42.9752C22.0716 43.6799 22.8992 44.3448 24.6749 45.2278C26.2474 46.0097 27.7885 46.2408 29.2549 45.9145ZM18.8942 44.1192C19.9592 43.9037 20.0847 43.7539 19.6271 43.2439C18.8553 42.3837 17.9389 41.9439 15.6198 41.3204C13.9932 40.883 13.8661 40.722 13.7888 39.0014C13.7349 37.8026 13.6884 37.6508 13.1995 37.0778C12.9705 36.8095 12.7288 36.4375 12.6622 36.2513C12.36 35.4053 12.1327 34.9263 11.8645 34.5702C11.7051 34.3587 11.5748 34.1424 11.5748 34.0895C11.5748 34.0367 11.5402 33.9934 11.4979 33.9934C11.0666 33.9934 10.3274 32.1701 10.3876 31.2549C10.4783 29.8759 12.2547 26.9223 13.3768 26.2849C13.444 26.2467 13.6857 26.0553 13.914 25.8596C15.718 24.3124 18.3096 23.2288 20.4977 23.1068C20.9854 23.0795 21.3844 23.0344 21.3844 23.0065C21.3844 22.5084 19.5861 20.9695 18.2528 20.3266C15.7957 19.1417 11.8403 19.0392 10.7533 20.1324C10.0779 20.8115 9.7101 23.0776 10.2011 23.5339C10.4863 23.7988 10.3345 24.315 9.87748 24.6341C9.29382 25.0416 9.30756 25.0148 9.27781 25.8073C9.24018 26.81 8.57661 27.9724 8.04188 27.9724C7.87383 27.9724 7.34908 28.5164 7.34908 28.6907C7.34908 28.8592 7.62162 29.371 8.00255 29.9178C9.40213 31.9271 9.87184 34.7419 9.00918 35.9502C8.30172 36.9411 9.4943 40.6184 11.0807 42.3376C12.5429 43.9222 15.9867 44.7074 18.8942 44.1192ZM29.6848 40.0896C30.2036 39.7877 30.7173 39.4799 30.8265 39.4057C31.0782 39.2343 32.0752 38.8514 32.6644 38.6997C34.2039 38.3033 35.0027 38.3917 36.2033 39.0913C37.1425 39.6386 40.9273 38.2061 42.5553 36.6872C44.0313 35.31 44.7684 31.5671 44.1037 28.8241C43.6511 26.956 42.2083 28.9088 41.3085 32.6076C40.9674 34.0095 40.8322 34.1102 39.2265 34.158C37.9513 34.196 37.6473 34.2856 37.0161 34.8098C36.5911 35.1626 36.3085 35.3115 35.6219 35.5445C35.334 35.6421 35.0515 35.7609 34.994 35.8085C34.9366 35.856 34.7908 35.9497 34.67 36.0166C34.5492 36.0836 34.1676 36.3557 33.822 36.6214C30.0185 39.5451 23.4541 33.9306 23.0568 27.414C23.0277 26.936 22.9727 26.581 22.9253 26.5654C22.6619 26.4785 20.4789 28.9437 20.4789 29.328C20.4789 29.3766 20.4113 29.502 20.3288 29.6066C19.2334 30.9955 19.039 36.1699 20.0445 37.1727C20.7313 37.8578 22.9898 38.2603 23.5111 37.7906C23.9097 37.4314 24.4555 37.6865 24.9101 38.4446C25.0217 38.6307 25.0757 38.6467 25.7536 38.6938C26.9987 38.7803 27.2291 38.9078 27.9143 39.8899C28.3079 40.454 28.5762 40.7143 28.7038 40.6558C28.7246 40.6463 29.166 40.3915 29.6848 40.0896ZM31.68 35.7687C32.5495 35.2604 33.3823 34.4648 33.3823 34.1423C33.3823 33.6073 33.5618 33.5119 34.4534 33.5732C35.2026 33.6246 35.2026 33.6246 35.6418 33.1699C36.4207 32.3635 36.9689 32.213 38.1221 32.4887C38.4671 32.5712 38.8001 32.6387 38.862 32.6387C39.0264 32.6387 39.231 32.1196 39.5638 30.8578C39.9073 29.5555 40.1088 28.9918 40.3655 28.6145C40.4674 28.4647 40.5508 28.3126 40.5508 28.2767C40.5508 27.8047 41.9973 26.481 42.8168 26.203C43.5508 25.954 43.6548 25.8774 44.1214 25.2415C47.2034 21.0418 46.6514 17.2973 42.4386 13.8272C41.1746 12.786 40.6574 12.7582 40.6737 13.7324C40.6936 14.9151 41.0743 15.8924 42.219 17.6992C43.0807 19.0591 43.0493 19.2568 41.7523 20.6359C41.2055 21.2173 41.0336 21.5624 40.8587 22.4294C40.7806 22.8167 40.6255 23.3502 40.514 23.615C40.1673 24.4388 40.0431 24.8934 39.9098 25.8275C39.4266 29.2115 36.4535 30.5182 31.194 29.6582C30.0768 29.4756 27.7472 28.6148 27.159 28.1672C27.0181 28.0601 26.8804 27.9724 26.8528 27.9724C26.8252 27.9724 26.4982 27.71 26.1262 27.3892C24.9778 26.3989 25.0179 26.398 24.9565 27.4168C24.6854 31.9158 29.0327 37.316 31.68 35.7687ZM7.13563 34.9978C7.65965 34.5248 7.11893 32.5819 5.91199 30.6011C4.89651 28.9345 4.9049 28.7837 6.08239 27.5369C6.8009 26.7761 7.01017 26.3625 7.11886 25.4888C7.17998 24.9975 7.26811 24.7094 7.49879 24.247C7.74944 23.7445 7.83077 23.4581 7.99025 22.516C8.38536 20.1821 8.74312 19.6246 10.3052 18.9089C13.8533 17.2834 19.2461 18.2456 22.3131 21.0513C22.949 21.633 22.9971 21.6045 23.0331 20.6236C23.1349 17.8532 21.3572 14.1487 19.2424 12.7241C17.5419 11.5787 17.0342 11.6219 15.2296 13.066C14.6262 13.5488 14.56 13.6265 14.5811 13.827C14.6178 14.1758 14.3342 14.5782 14.0793 14.539C13.0028 14.3732 12.8071 14.4057 12.4657 14.8069C11.8505 15.5298 11.0889 15.7838 10.1033 15.5947C8.83992 15.3525 8.91196 15.2827 8.3975 17.2476C7.72221 19.8269 6.51527 21.4865 5.00819 21.9083C4.27666 22.113 3.72726 22.7559 2.82068 24.4679C1.12243 27.6748 1.64807 30.4004 4.51938 33.2762C5.80943 34.5682 6.85168 35.2541 7.13563 34.9978ZM36.212 28.4737C37.3321 28.1181 37.7362 27.4796 37.959 25.7136C38.0817 24.7409 38.0817 24.7409 37.8448 24.5202C37.4664 24.1676 37.8014 23.4853 38.5399 23.1044C38.7543 22.9938 38.7587 22.9799 38.7138 22.5513C38.587 21.342 38.9424 20.6747 40.0588 20.0258C40.762 19.617 40.7456 19.3785 39.9214 18.0252C38.5361 15.7507 38.1448 13.6684 38.8443 12.293C39.7645 10.4835 38.122 6.37468 35.8852 4.89085C34.0902 3.7001 28.3705 3.2787 28.0447 4.31319C28.0013 4.45091 28.74 5.28281 29.0257 5.41807C29.1693 5.48601 29.3277 5.59083 29.3778 5.651C29.5387 5.84448 30.554 6.21618 31.8911 6.57114C32.6075 6.76134 33.3183 6.95024 33.4706 6.99092C33.9289 7.11331 34.0761 7.55905 34.1462 9.03675C34.1775 9.69504 34.234 10.2539 34.2718 10.2786C34.3097 10.3033 34.3852 10.4082 34.4396 10.5117C34.494 10.6151 34.6652 10.8522 34.82 11.0385C35.1015 11.3771 35.4196 11.9373 35.4196 12.0941C35.4196 12.3532 36.0215 13.3977 36.6542 14.2369C37.0543 14.7674 37.3816 15.2733 37.3816 15.3611C37.3816 15.4489 37.4401 15.6041 37.5117 15.7061C37.7731 16.0783 37.6308 17.2784 37.2174 18.1884C36.7994 19.1082 36.6625 19.354 36.2324 19.9571C35.5047 20.9776 33.472 22.8164 32.7272 23.1282C32.5951 23.1834 32.4674 23.2604 32.4434 23.2992C32.0938 23.8634 29.1304 24.8345 27.4443 24.9374C26.5094 24.9944 26.4948 25.0095 26.8611 25.54C28.3939 27.7597 33.4573 29.3483 36.212 28.4737ZM30.0621 22.7896C30.9157 22.5252 32.1918 21.9557 32.4381 21.7292C32.5216 21.6524 32.7088 21.5403 32.8541 21.4799C33.5319 21.1985 35.3936 19.28 35.8127 18.4312C36.2567 17.5318 36.1864 16.9647 35.5145 16.027C34.5301 14.6532 34.5519 14.6755 34.1368 14.6205C33.5871 14.5478 33.4977 14.3807 33.5651 13.552C33.6174 12.9091 33.6174 12.9091 33.1022 12.3681C32.5569 11.7956 32.4242 11.5154 32.3476 10.7751C32.3254 10.561 32.3419 10.321 32.3843 10.2418C32.8581 9.35487 32.5853 8.93716 31.3305 8.62881C28.2374 7.86869 26.08 6.35919 26.0619 4.94227C26.0487 3.91512 22.142 1.99357 20.0638 1.99209C17.6625 1.99038 14.7747 3.9113 13.057 6.65299C12.2673 7.9135 14.7613 7.59762 17.1795 6.13086C19.0705 4.98381 19.1619 4.98487 20.4713 6.16877C21.2657 6.88709 21.3217 6.93525 21.4449 7.00651C21.499 7.03778 21.9238 7.12529 22.3891 7.20099C23.0197 7.3036 23.3693 7.4061 23.7623 7.60369C24.0648 7.75577 24.5468 7.9174 24.8932 7.9829C25.2252 8.04569 25.8874 8.16861 26.3646 8.25607C27.8503 8.5283 28.4011 8.93429 29.0416 10.2295C30.7277 13.6389 29.8461 19.089 27.1058 22.1966C26.3236 23.0835 26.3186 23.0788 28.0247 23.0535C29.1904 23.0361 29.3203 23.0193 30.0621 22.7896ZM25.44 21.2474C25.5958 21.1085 25.7996 20.9549 25.893 20.906C25.9864 20.8572 26.0628 20.7822 26.0628 20.7393C26.0628 20.6964 26.2212 20.4821 26.4149 20.2631C28.9841 17.3565 29.5019 10.9741 27.2175 10.3682C25.9314 10.0271 24.6804 9.96868 24.4473 10.2389C24.1585 10.5736 23.7388 10.4165 23.2331 9.78419C22.9313 9.40685 22.9313 9.40685 22.1767 9.36929C21.1318 9.31728 20.5819 9.027 20.1348 8.29143C19.4915 7.23304 19.351 7.23357 17.7032 8.30058C17.3593 8.52322 17.0571 8.70537 17.0316 8.70537C17.006 8.70537 16.8119 8.78986 16.6003 8.89312C15.2809 9.53682 13.1459 9.70634 12.2539 9.23822C10.6594 8.40144 6.42228 9.83824 5.18782 11.6343C5.08586 11.7826 4.8688 12.0903 4.70545 12.318C3.79342 13.5891 3.36587 16.9368 3.84038 19.0915C4.06718 20.1214 4.2356 20.1714 4.93991 19.418C5.7625 18.538 5.99978 18.0409 6.44841 16.2575C7.01927 13.9882 7.02164 13.9858 8.79888 13.8884C10.0804 13.8181 10.2535 13.7629 11.0147 13.1814C11.3686 12.911 11.7353 12.7105 12.1016 12.5869C12.4056 12.4843 12.8495 12.2802 13.088 12.1334C13.3265 11.9865 13.5531 11.8664 13.5915 11.8664C13.6299 11.8664 13.7432 11.7794 13.8434 11.673C14.1827 11.3128 15.2259 10.6726 15.6842 10.5434C16.7026 10.2561 18.6771 10.8109 19.7042 11.6729C19.831 11.7793 19.968 11.8664 20.0087 11.8664C20.2587 11.8664 22.8935 14.7271 22.8935 14.9985C22.8935 15.0469 22.9378 15.1035 22.9918 15.1242C23.1645 15.1903 23.9918 16.8225 24.3541 17.8121C24.6651 18.6616 24.7582 19.1273 24.8578 20.3329C24.9664 21.6466 24.9758 21.6614 25.44 21.2474Z" fill="#1F323D" stroke="#1F323D" stroke-width="0.5"/>
</g>
</g>
<defs>
<clipPath id="clip0_4938_9400">
<rect width="48" height="48" fill="white"/>
</clipPath>
<clipPath id="clip1_4938_9400">
<rect width="48" height="48" fill="white"/>
</clipPath>
</defs>
</svg>
