<svg width="48" height="48" viewBox="0 0 48 48" fill="none" xmlns="http://www.w3.org/2000/svg">
<rect width="48" height="48" rx="8" fill="#27606D"/>
<g clip-path="url(#clip0_4926_3006)">
<path d="M24 12C17.3726 12 12 17.3726 12 24C12 29.6275 15.8746 34.3498 21.1013 35.6467V27.6672H18.6269V24H21.1013V22.4198C21.1013 18.3355 22.9498 16.4424 26.9597 16.4424C27.72 16.4424 29.0318 16.5917 29.5685 16.7405V20.0645C29.2853 20.0347 28.7933 20.0198 28.1822 20.0198C26.2147 20.0198 25.4544 20.7653 25.4544 22.703V24H29.3741L28.7006 27.6672H25.4544V35.9122C31.3963 35.1946 36.0005 30.1354 36.0005 24C36 17.3726 30.6274 12 24 12Z" fill="white"/>
</g>
<defs>
<clipPath id="clip0_4926_3006">
<rect width="24" height="24" fill="white" transform="translate(12 12)"/>
</clipPath>
</defs>
</svg>
