<svg width="48" height="48" viewBox="0 0 48 48" fill="none" xmlns="http://www.w3.org/2000/svg">
<rect width="48" height="48" rx="8" fill="#27606D"/>
<path d="M17.4193 19.8921H12.4044V35.8844H17.4193V19.8921Z" fill="white"/>
<path d="M30.985 19.5456C30.8002 19.5225 30.6037 19.5109 30.4073 19.4994C27.5994 19.3838 26.0163 21.0478 25.4617 21.7642C25.3115 21.9606 25.2422 22.0762 25.2422 22.0762V19.9385H20.4468V35.9307H25.2422H25.4617C25.4617 34.3015 25.4617 32.6838 25.4617 31.0545C25.4617 30.1763 25.4617 29.2981 25.4617 28.4199C25.4617 27.3337 25.3808 26.1782 25.9239 25.1845C26.3861 24.3525 27.2181 23.9365 28.154 23.9365C30.9273 23.9365 30.985 26.444 30.985 26.6751C30.985 26.6867 30.985 26.6982 30.985 26.6982V36.0001H36V25.5658C36 21.9953 34.1858 19.8923 30.985 19.5456Z" fill="white"/>
<path d="M14.9119 17.8238C16.5201 17.8238 17.8238 16.5201 17.8238 14.9119C17.8238 13.3037 16.5201 12 14.9119 12C13.3037 12 12 13.3037 12 14.9119C12 16.5201 13.3037 17.8238 14.9119 17.8238Z" fill="white"/>
</svg>
