<svg width="241" height="241" viewBox="0 0 241 241" fill="none" xmlns="http://www.w3.org/2000/svg">
<rect width="241" height="241" fill="#F6F8F9"/>
<path d="M124.751 191.538C120.566 190.338 116.354 187.841 112.616 184.344C111.006 182.838 110.866 182.809 108.835 183.541C89.8754 190.377 72.7749 179.602 71.5521 160.05C71.4026 157.66 71.4026 157.66 69.6585 156.759C51.3902 147.328 46.4936 127.894 58.7569 113.493C60.6662 111.25 60.6201 111.466 59.8598 108.337C56.1655 93.1295 59.4714 80.9093 68.9911 74.5832C72.6513 72.1508 76.1528 71.1813 82.9434 70.7198C84.8348 70.5913 84.8348 70.5913 85.496 69.2372C89.0996 61.8573 96.3904 54.2631 101.816 52.2385C102.36 52.0356 103.192 51.6863 103.666 51.4623C110.629 48.1705 120.372 50.5616 127.75 57.3731C129.867 59.3271 129.867 59.3271 132.596 58.5218C152.462 52.6597 167.119 61.6225 169.148 80.8743C169.545 84.6402 169.374 84.3678 172.398 86.0514C189.803 95.7444 194.287 115.212 182.196 128.599C179.994 131.038 180.118 130.612 180.847 133.234C186.849 154.834 177.719 170.049 157.814 171.617C155.965 171.762 155.965 171.762 154.772 174.039C151.51 180.262 146.166 186.151 141.587 188.57C141.003 188.878 140.39 189.27 140.225 189.44C140.06 189.611 139.817 189.75 139.686 189.75C139.554 189.75 139.052 189.946 138.57 190.184C135.214 191.847 128.218 192.533 124.751 191.538ZM135.498 185.83C140.971 184.568 148.088 178.656 151.588 172.463C152.659 170.57 152.687 170.709 151.174 170.401C148.309 169.818 143.977 171.248 139.308 174.317C134.617 177.4 134.288 177.378 130.372 173.719C127.734 171.256 127.065 170.91 124.557 170.715C123.065 170.599 122.405 170.437 121.693 170.011C120.223 169.132 118.566 168.63 114.758 167.908C109.634 166.938 108.176 166.076 106.512 163.032C102.808 156.257 102.792 142.778 106.479 134.854C106.886 133.978 107.22 133.188 107.22 133.098C107.22 133.007 107.413 132.679 107.65 132.367C107.887 132.056 108.083 131.639 108.086 131.442C108.088 131.244 108.287 130.831 108.527 130.525C108.767 130.219 109.216 129.568 109.524 129.078C109.832 128.588 110.265 127.987 110.486 127.742C111.914 126.164 113.048 124.667 112.979 124.452C112.385 122.61 100.436 124.738 97.2398 127.253C96.8652 127.548 96.3272 127.865 96.0444 127.958C95.7616 128.05 94.5229 128.991 93.2917 130.049C92.0605 131.107 90.7692 132.173 90.4221 132.418C90.075 132.663 89.7873 132.949 89.7827 133.055C89.7782 133.16 89.3037 133.778 88.7284 134.429C87.6172 135.686 85.9578 138.873 85.7622 140.127C85.5514 141.477 87.6971 145.791 89.028 146.693C89.3024 146.879 89.6271 147.328 89.7497 147.692C90.0061 148.452 91.0566 149.005 92.2443 149.005C93.005 149.005 93.005 149.005 93.005 151.483C93.005 153.961 93.005 153.961 94.3594 155.445C96.5415 157.836 96.835 159.064 96.1321 162.862C95.6086 165.69 95.6954 165.767 100.617 166.835C101.82 167.096 103.019 167.45 103.281 167.62C103.544 167.791 103.89 167.931 104.051 167.931C104.531 167.931 108.295 169.899 109.825 170.951C112.261 172.625 113.728 174.597 114.424 177.135C114.996 179.22 117.358 181.187 122.426 183.799C126.914 186.112 131.313 186.796 135.498 185.83ZM105.927 180.519C108.967 179.882 109.325 179.438 108.019 177.93C105.816 175.385 103.201 174.084 96.5816 172.239C91.939 170.946 91.5761 170.469 91.3555 165.379C91.2018 161.833 91.069 161.384 89.6735 159.688C89.0201 158.895 88.33 157.794 88.1401 157.243C87.2776 154.741 86.6288 153.323 85.8631 152.27C85.4084 151.644 85.0363 151.005 85.0363 150.848C85.0363 150.692 84.9376 150.564 84.8169 150.564C83.586 150.564 81.4761 145.17 81.648 142.462C81.9069 138.383 86.977 129.645 90.1796 127.76C90.3713 127.647 91.0613 127.08 91.7128 126.501C96.8619 121.924 104.259 118.719 110.504 118.357C111.896 118.277 113.035 118.144 113.035 118.061C113.035 116.587 107.902 112.035 104.097 110.133C97.0836 106.627 85.7942 106.324 82.6916 109.558C80.7641 111.567 79.7142 118.271 81.1158 119.621C81.9297 120.405 81.4963 121.932 80.192 122.876C78.5261 124.082 78.5653 124.002 78.4804 126.347C78.373 129.313 76.4791 132.752 74.9529 132.752C74.4732 132.752 72.9755 134.361 72.9755 134.877C72.9755 135.375 73.7534 136.889 74.8406 138.507C78.8352 144.451 80.1759 152.778 77.7137 156.353C75.6945 159.284 79.0983 170.163 83.626 175.249C87.7995 179.936 97.6288 182.259 105.927 180.519ZM136.725 168.598C138.206 167.705 139.672 166.795 139.984 166.575C140.702 166.068 143.548 164.935 145.23 164.486C149.624 163.314 151.903 163.575 155.33 165.645C158.011 167.264 168.813 163.026 173.46 158.533C177.673 154.459 179.776 143.386 177.879 135.271C176.587 129.745 172.47 135.522 169.901 146.464C168.928 150.612 168.542 150.909 163.959 151.051C160.319 151.163 159.452 151.428 157.65 152.979C156.437 154.023 155.631 154.463 153.671 155.152C152.849 155.441 152.043 155.793 151.879 155.933C151.715 156.074 151.299 156.351 150.954 156.549C150.609 156.747 149.52 157.552 148.534 158.338C137.678 166.987 118.942 150.378 117.808 131.1C117.725 129.686 117.568 128.635 117.433 128.589C116.681 128.332 110.45 135.625 110.45 136.762C110.45 136.906 110.257 137.277 110.022 137.586C106.895 141.695 106.34 157.003 109.21 159.969C111.171 161.996 117.617 163.187 119.104 161.797C120.242 160.734 121.8 161.489 123.098 163.732C123.416 164.283 123.57 164.33 125.505 164.469C129.059 164.725 129.716 165.102 131.672 168.008C132.795 169.676 133.561 170.446 133.926 170.273C133.985 170.245 135.245 169.491 136.725 168.598ZM142.42 155.816C144.902 154.312 147.279 151.958 147.279 151.004C147.279 149.422 147.791 149.139 150.336 149.321C152.474 149.473 152.474 149.473 153.728 148.128C155.951 145.742 157.515 145.297 160.807 146.112C161.792 146.356 162.742 146.556 162.919 146.556C163.388 146.556 163.972 145.02 164.922 141.288C165.902 137.435 166.477 135.767 167.21 134.651C167.501 134.208 167.739 133.758 167.739 133.652C167.739 132.256 171.867 128.34 174.206 127.517C176.301 126.781 176.598 126.554 177.93 124.673C186.726 112.249 185.151 101.171 173.127 90.9053C169.519 87.8253 168.043 87.7431 168.09 90.625C168.146 94.124 169.233 97.0151 172.5 102.36C174.959 106.383 174.87 106.968 171.168 111.048C169.607 112.768 169.117 113.789 168.618 116.354C168.395 117.499 167.952 119.078 167.634 119.861C166.644 122.298 166.29 123.643 165.909 126.406C164.53 136.417 156.044 140.283 141.033 137.739C137.844 137.199 131.195 134.652 129.516 133.328C129.114 133.011 128.721 132.752 128.642 132.752C128.564 132.752 127.63 131.975 126.569 131.026C123.291 128.097 123.405 128.094 123.23 131.108C122.456 144.418 134.864 160.393 142.42 155.816ZM72.3663 153.535C73.8619 152.136 72.3186 146.388 68.8738 140.528C65.9755 135.598 65.9994 135.152 69.3602 131.463C71.4109 129.213 72.0082 127.989 72.3184 125.404C72.4928 123.951 72.7444 123.099 73.4028 121.731C74.1182 120.244 74.3503 119.397 74.8055 116.61C75.9332 109.705 76.9543 108.056 81.4129 105.939C91.5396 101.13 106.932 103.976 115.685 112.277C117.5 113.998 117.638 113.913 117.74 111.011C118.031 102.816 112.957 91.8565 106.921 87.6423C102.067 84.2536 100.618 84.3815 95.4678 88.6536C93.7457 90.082 93.5568 90.3118 93.617 90.9049C93.7217 91.9367 92.9121 93.1273 92.1847 93.0112C89.1121 92.5208 88.5536 92.6169 87.5792 93.8038C85.8233 95.9423 83.6496 96.6936 80.8365 96.1345C77.2306 95.4177 77.4362 95.2112 75.9679 101.024C74.0405 108.654 70.5957 113.564 66.2942 114.812C64.2063 115.418 62.6382 117.319 60.0507 122.384C55.2036 131.871 56.7039 139.935 64.8991 148.442C68.5811 152.264 71.5558 154.293 72.3663 153.535ZM155.355 134.235C158.552 133.183 159.705 131.294 160.341 126.069C160.691 123.192 160.691 123.192 160.015 122.539C158.935 121.496 159.891 119.477 161.999 118.35C162.611 118.023 162.624 117.982 162.496 116.714C162.134 113.137 163.148 111.163 166.335 109.243C168.342 108.034 168.295 107.328 165.942 103.325C161.988 96.596 160.872 90.4357 162.868 86.3669C165.495 81.0137 160.807 68.8584 154.422 64.4688C149.299 60.9461 132.974 59.6995 132.044 62.7599C131.92 63.1673 134.029 65.6283 134.844 66.0284C135.254 66.2294 135.706 66.5395 135.849 66.7176C136.309 67.2899 139.206 68.3895 143.022 69.4396C145.067 70.0023 147.096 70.5611 147.531 70.6815C148.839 71.0435 149.259 72.3622 149.459 76.7337C149.548 78.6812 149.71 80.3343 149.818 80.4074C149.926 80.4806 150.141 80.7909 150.296 81.097C150.452 81.4031 150.94 82.1045 151.382 82.6556C152.185 83.6573 153.094 85.3144 153.094 85.7784C153.094 86.5447 154.811 89.635 156.617 92.1173C157.759 93.6868 158.693 95.1835 158.693 95.4432C158.693 95.703 158.86 96.1622 159.065 96.4638C159.811 97.565 159.405 101.115 158.225 103.807C157.032 106.529 156.641 107.256 155.413 109.04C153.336 112.059 147.535 117.499 145.409 118.421C145.032 118.584 144.667 118.812 144.599 118.927C143.601 120.596 135.143 123.469 130.331 123.773C127.662 123.942 127.621 123.986 128.666 125.556C133.041 132.123 147.493 136.822 155.355 134.235ZM137.802 117.419C140.239 116.637 143.881 114.952 144.584 114.282C144.822 114.055 145.356 113.723 145.771 113.545C147.706 112.712 153.019 107.037 154.215 104.526C155.483 101.865 155.282 100.187 153.364 97.4133C150.555 93.3491 150.617 93.4149 149.432 93.2524C147.863 93.0373 147.608 92.5428 147.8 90.0913C147.95 88.1894 147.95 88.1894 146.479 86.589C144.923 84.8952 144.544 84.0664 144.325 81.8764C144.262 81.243 144.309 80.533 144.43 80.2986C145.783 77.6748 145.004 76.4391 141.423 75.5269C132.594 73.2782 126.437 68.8126 126.385 64.6209C126.347 61.5822 115.197 55.8976 109.266 55.8933C102.412 55.8882 94.1695 61.5709 89.2669 69.6818C87.0129 73.4108 94.1312 72.4763 101.033 68.1371C106.43 64.7438 106.691 64.7469 110.428 68.2493C112.696 70.3743 112.856 70.5168 113.207 70.7276C113.362 70.8201 114.574 71.079 115.902 71.3029C117.702 71.6065 118.7 71.9097 119.822 72.4942C120.685 72.9441 122.061 73.4223 123.049 73.6161C123.997 73.8018 125.887 74.1655 127.249 74.4242C131.489 75.2296 133.061 76.4306 134.889 80.2621C139.702 90.3485 137.186 106.472 129.364 115.665C127.132 118.289 127.118 118.275 131.987 118.2C135.314 118.149 135.685 118.099 137.802 117.419ZM124.61 112.857C125.055 112.446 125.636 111.991 125.903 111.847C126.169 111.703 126.388 111.481 126.388 111.354C126.388 111.227 126.84 110.593 127.392 109.945C134.726 101.346 136.203 82.4651 129.683 80.6727C126.012 79.6635 122.442 79.4907 121.777 80.29C120.952 81.2802 119.755 80.8153 118.311 78.9449C117.45 77.8286 117.45 77.8286 115.296 77.7175C112.314 77.5636 110.744 76.7049 109.468 74.5288C107.632 71.3978 107.231 71.3993 102.528 74.5559C101.546 75.2145 100.684 75.7534 100.611 75.7534C100.538 75.7534 99.984 76.0033 99.3799 76.3088C95.6143 78.2131 89.5205 78.7146 86.9746 77.3297C82.4237 74.8543 70.3303 79.1048 66.8069 84.4181C66.5159 84.857 65.8964 85.7671 65.4301 86.4406C62.8271 90.201 61.6068 100.105 62.9611 106.479C63.6084 109.526 64.0891 109.674 66.0993 107.445C68.4471 104.842 69.1244 103.371 70.4048 98.095C72.0342 91.3819 72.0409 91.3748 77.1135 91.0865C80.7711 90.8786 81.2651 90.7152 83.4378 88.995C84.448 88.1951 85.4945 87.6018 86.5399 87.2362C87.4076 86.9327 88.6746 86.3289 89.3554 85.8945C90.0362 85.4601 90.6828 85.1047 90.7924 85.1047C90.9019 85.1047 91.2255 84.8473 91.5114 84.5327C92.4798 83.4671 95.4572 81.5732 96.7654 81.1908C99.6721 80.3411 105.308 81.9824 108.239 84.5323C108.601 84.8471 108.992 85.1047 109.108 85.1047C109.822 85.1047 117.342 93.5678 117.342 94.3706C117.342 94.5138 117.468 94.6811 117.622 94.7423C118.115 94.9378 120.476 99.7667 121.511 102.694C122.398 105.207 122.664 106.585 122.948 110.152C123.258 114.038 123.285 114.082 124.61 112.857Z" fill="#237688"/>
</svg>
