<svg width="48" height="48" viewBox="0 0 48 48" fill="none" xmlns="http://www.w3.org/2000/svg">
<rect width="48" height="48" rx="8" fill="#27606D"/>
<path d="M35.7609 19.1998C35.7609 19.1998 35.5266 17.5451 34.8047 16.8186C33.8906 15.8623 32.8688 15.8576 32.4 15.8014C29.0438 15.5576 24.0047 15.5576 24.0047 15.5576H23.9953C23.9953 15.5576 18.9563 15.5576 15.6 15.8014C15.1313 15.8576 14.1094 15.8623 13.1953 16.8186C12.4734 17.5451 12.2437 19.1998 12.2437 19.1998C12.2437 19.1998 12 21.1451 12 23.0857V24.9045C12 26.8451 12.2391 28.7904 12.2391 28.7904C12.2391 28.7904 12.4734 30.4451 13.1906 31.1717C14.1047 32.1279 15.3047 32.0951 15.8391 32.1982C17.7609 32.3811 24 32.4373 24 32.4373C24 32.4373 29.0438 32.4279 32.4 32.1889C32.8688 32.1326 33.8906 32.1279 34.8047 31.1717C35.5266 30.4451 35.7609 28.7904 35.7609 28.7904C35.7609 28.7904 36 26.8498 36 24.9045V23.0857C36 21.1451 35.7609 19.1998 35.7609 19.1998ZM21.5203 27.1123V20.367L28.0031 23.7514L21.5203 27.1123Z" fill="white"/>
</svg>
